<?xml version="1.0" encoding="utf-8"?>
<COLLADA version="1.5.0" xmlns="http://www.collada.org/2008/03/COLLADASchema">
  <asset>
    <contributor />
    <unit meter="1" />
  </asset>
  <library_lights />
  <library_materials />
  <library_effects />
  <library_cameras />
  <library_geometries>
    <geometry id="mesh_1">
      <mesh>
        <source id="mesh_1-position" name="position">
          <float_array id="mesh_1-position-array" count="1101">0.021282974630594254 0.024561861529946327 0.04743416607379913 0.023084068670868874 0.022672927007079124 0.04743416607379913 0.025651641190052032 0.022684788331389427 0.04619137942790985 -0.007662165444344282 -0.03158387541770935 0.04743416607379913 -0.009771042503416538 -0.030853986740112305 0.04743416607379913 -0.009502389468252659 -0.032860416918992996 0.04621847718954086 -0.03632822632789612 -0.019659854471683502 0.03999999910593033 -0.03439951315522194 -0.02261197380721569 0.03999999910593033 -0.035747624933719635 -0.017220642417669296 0.04161498323082924 -0.027976321056485176 -0.030390385538339615 0.03999999910593033 -0.02786232717335224 -0.030479108914732933 0.03999999910593033 -0.028727874159812927 -0.02791595458984375 0.04125116392970085 -0.022592667490243912 -0.03458065167069435 0.03999999910593033 -0.022228995338082314 -0.034777458757162094 0.03999999910593033 -0.022908171638846397 -0.032860416918992996 0.04125116392970085 0.03632822632789612 0.019659854471683502 0.03999999910593033 0.03439951315522194 0.02261197380721569 0.03999999910593033 0.035747624933719635 0.017220642417669296 0.04161498323082924 0.032596852630376816 0.02537114918231964 0.03999999910593033 0.030276861041784286 0.027891332283616066 0.03999999910593033 0.028727874159812927 0.02791595458984375 0.04125116392970085 0.02786232717335224 0.030479108914732933 0.03999999910593033 0.02482450008392334 0.03284354507923126 0.03999999910593033 0.022908171638846397 0.032860416918992996 0.04125116392970085 -0.04074340686202049 0.006798872258514166 0.03999999910593033 -0.03727499395608902 0.005819702986627817 0.04339304193854332 -0.03669976815581322 0.011579635553061962 0.0427234023809433 -0.035747624933719635 0.017220642417669296 0.04161498323082924 -0.039068665355443954 0.013412289321422577 0.03999999910593033 -0.039536163210868835 0.011566179804503918 0.03999999910593033 -0.03439951315522194 0.02261197380721569 0.03999999910593033 -0.03632822632789612 0.019659854471683502 0.03999999910593033 -0.03740835562348366 0.01719740778207779 0.03999999910593033 -0.03135211020708084 0.017220642417669296 0.04501938074827194 -0.030195048078894615 0.022684788331389427 0.04335792362689972 -0.030276861041784286 0.027891332283616066 0.03999999910593033 -0.032596852630376816 0.02537114918231964 0.03999999910593033 -0.034369662404060364 0.022657662630081177 0.03999999910593033 -0.027976321056485176 0.030390385538339615 0.03999999910593033 -0.028727874159812927 0.02791595458984375 0.04125116392970085 -0.02786232717335224 0.030479108914732933 0.03999999910593033 -0.024405231699347496 0.02791595458984375 0.043946947902441025 -0.02482450008392334 0.03284354507923126 0.03999999910593033 -0.022592667490243912 0.03458065167069435 0.03999999910593033 -0.022908171638846397 0.032860416918992996 0.04125116392970085 -0.022228995338082314 0.034777458757162094 0.03999999910593033 -0.018615413457155228 0.032860416918992996 0.04335792362689972 -0.01726425439119339 0.037464242428541183 0.03999999910593033 -0.017193231731653214 0.037502679973840714 0.03999999910593033 -0.01720770262181759 0.03746739402413368 0.04007916525006294 -0.01659274473786354 0.03782764822244644 0.03999999910593033 -0.013062836602330208 0.03746739402413368 0.04161498323082924 -0.012597399763762951 0.03919925168156624 0.03999999910593033 -0.010140215046703815 0.040042802691459656 0.03999999910593033 -0.008783812634646893 0.03746739402413368 0.0427234023809433 -0.008247877471148968 0.04035857692360878 0.03999999910593033 -0.004414575640112162 0.03746739402413368 0.04339304193854332 -0.004074676427990198 0.04105496034026146 0.03999999910593033 -0.003411086741834879 0.04116569459438324 0.03999999910593033 3.469446951953614E-18 0.03746739402413368 0.043617021292448044 -3.0791341698588326E-17 0.04116569459438324 0.03999999910593033 0.003411086741834879 0.04116569459438324 0.03999999910593033 0.004414575640112162 0.03746739402413368 0.04339304193854332 0.004074676427990198 0.04105496034026146 0.03999999910593033 0.008783812634646893 0.03746739402413368 0.0427234023809433 0.008247877471148968 0.04035857692360878 0.03999999910593033 0.010140215046703815 0.040042802691459656 0.03999999910593033 0.013062836602330208 0.03746739402413368 0.04161498323082924 0.012597399763762951 0.03919925168156624 0.03999999910593033 0.022228995338082314 0.034777458757162094 0.03999999910593033 0.01726425439119339 0.037464242428541183 0.03999999910593033 0.01720770262181759 0.03746739402413368 0.04007916525006294 0.017193231731653214 0.037502679973840714 0.03999999910593033 0.01659274473786354 0.03782764822244644 0.03999999910593033 0.03669976815581322 0.011579635553061962 0.0427234023809433 0.039068665355443954 0.013412289321422577 0.03999999910593033 0.03740835562348366 0.01719740778207779 0.03999999910593033 0.03727499395608902 -0.005819702986627817 0.04339304193854332 0.04130677878856659 4.585973688416466E-18 0.03999999910593033 0.03746739402413368 3.191891253699968E-18 0.043617021292448044 0.04082478955388069 0.005816760938614607 0.03999999910593033 0.03727499395608902 0.005819702986627817 0.04339304193854332 0.04074340686202049 0.006798872258514166 0.03999999910593033 0.039536163210868835 0.011566179804503918 0.03999999910593033 0.03669976815581322 -0.011579635553061962 0.0427234023809433 0.04074340686202049 -0.006798872258514166 0.03999999910593033 0.04082478955388069 -0.005816760938614607 0.03999999910593033 0.03632822632789612 -0.019659854471683502 0.03999999910593033 0.03740835562348366 -0.01719740778207779 0.03999999910593033 0.035747624933719635 -0.017220642417669296 0.04161498323082924 0.039068665355443954 -0.013412289321422577 0.03999999910593033 0.039536163210868835 -0.011566179804503918 0.03999999910593033 0.032596852630376816 -0.02537114918231964 0.03999999910593033 0.034369662404060364 -0.022657662630081177 0.03999999910593033 0.030195048078894615 -0.022684788331389427 0.04335792362689972 0.03439951315522194 -0.02261197380721569 0.03999999910593033 0.03135211020708084 -0.017220642417669296 0.04501938074827194 0.030276861041784286 -0.027891332283616066 0.03999999910593033 0.028727874159812927 -0.02791595458984375 0.04125116392970085 0.027976321056485176 -0.030390385538339615 0.03999999910593033 0.02786232717335224 -0.030479108914732933 0.03999999910593033 0.02482450008392334 -0.03284354507923126 0.03999999910593033 0.024405231699347496 -0.02791595458984375 0.043946947902441025 0.022592667490243912 -0.03458065167069435 0.03999999910593033 0.022908171638846397 -0.032860416918992996 0.04125116392970085 0.022228995338082314 -0.034777458757162094 0.03999999910593033 0.018615413457155228 -0.032860416918992996 0.04335792362689972 0.01726425439119339 -0.037464242428541183 0.03999999910593033 0.017193231731653214 -0.037502679973840714 0.03999999910593033 0.01720770262181759 -0.03746739402413368 0.04007916525006294 0.01659274473786354 -0.03782764822244644 0.03999999910593033 0.013062836602330208 -0.03746739402413368 0.04161498323082924 0.012597399763762951 -0.03919925168156624 0.03999999910593033 0.010140215046703815 -0.040042802691459656 0.03999999910593033 0.008783812634646893 -0.03746739402413368 0.0427234023809433 0.008247877471148968 -0.04035857692360878 0.03999999910593033 0.004414575640112162 -0.03746739402413368 0.04339304193854332 0.004074676427990198 -0.04105496034026146 0.03999999910593033 0.003411086741834879 -0.04116569459438324 0.03999999910593033 3.469446951953614E-18 -0.03746739402413368 0.043617021292448044 -3.0791341698588326E-17 -0.04116569459438324 0.03999999910593033 -0.003411086741834879 -0.04116569459438324 0.03999999910593033 -0.004414575640112162 -0.03746739402413368 0.04339304193854332 -0.004074676427990198 -0.04105496034026146 0.03999999910593033 -0.008783812634646893 -0.03746739402413368 0.0427234023809433 -0.008247877471148968 -0.04035857692360878 0.03999999910593033 -0.010140215046703815 -0.040042802691459656 0.03999999910593033 -0.013062836602330208 -0.03746739402413368 0.04161498323082924 -0.012597399763762951 -0.03919925168156624 0.03999999910593033 -0.01720770262181759 -0.03746739402413368 0.04007916525006294 -0.017193231731653214 -0.037502679973840714 0.03999999910593033 -0.01659274473786354 -0.03782764822244644 0.03999999910593033 -0.030195048078894615 -0.022684788331389427 0.04335792362689972 -0.032596852630376816 -0.02537114918231964 0.03999999910593033 -0.030276861041784286 -0.027891332283616066 0.03999999910593033 -0.03669976815581322 -0.011579635553061962 0.0427234023809433 -0.039068665355443954 -0.013412289321422577 0.03999999910593033 -0.03740835562348366 -0.01719740778207779 0.03999999910593033 -0.04082478955388069 0.005816760938614607 0.03999999910593033 -0.04130677878856659 0 0.03999999910593033 -0.03746739402413368 3.191891253699968E-18 0.043617021292448044 -0.04082478955388069 -0.005816760938614607 0.03999999910593033 -0.03727499395608902 -0.005819702986627817 0.04339304193854332 -0.04074340686202049 -0.006798872258514166 0.03999999910593033 -0.039536163210868835 -0.011566179804503918 0.03999999910593033 -0.03191268444061279 -0.0061506652273237705 0.04743416607379913 -0.03269167244434357 -0.005819702986627817 0.04694289714097977 -0.03031965345144272 -0.011576022021472454 0.04743416607379913 -0.03218717873096466 -0.011579635553061962 0.04621847718954086 -0.030171958729624748 -0.012079029344022274 0.04743416607379913 -0.027523139491677284 -0.017217019572854042 0.04743416607379913 -0.03135211020708084 -0.017220642417669296 0.04501938074827194 -0.027340739965438843 -0.017570827156305313 0.04743416607379913 -0.02636338211596012 -0.018813638016581535 0.04743416607379913 -0.025651641190052032 -0.022684788331389427 0.04619137942790985 -0.023521356284618378 -0.022427568212151527 0.04743416607379913 -0.02322734333574772 -0.02268233150243759 0.04743416607379913 -0.01413146872073412 -0.032860416918992996 0.04501938074827194 -0.01350098755210638 -0.029563039541244507 0.04743416607379913 -0.014911447651684284 -0.028748709708452225 0.04743416607379913 -0.018615413457155228 -0.032860416918992996 0.04335792362689972 -0.016361411660909653 -0.02791157364845276 0.04743416607379913 -0.019831938669085503 -0.02791595458984375 0.04619137942790985 -0.01885185018181801 -0.026473717764019966 0.04743416607379913 -0.02039327472448349 -0.025138065218925476 0.04743416607379913 -0.004835850093513727 -0.03199023753404617 0.04743416607379913 -0.0047757187858223915 -0.032860416918992996 0.04694289714097977 -0.0015464122407138348 -0.032463189214468 0.04743416607379913 3.469446951953614E-18 -0.032860416918992996 0.04718519747257233 1.835310792230871E-09 -0.032389525324106216 0.04743416607379913 0.004625232424587011 -0.032169196754693985 0.04743416607379913 0.0047757187858223915 -0.032860416918992996 0.04694289714097977 0.004827035125344992 -0.0321202389895916 0.04743416607379913 0.009502389468252659 -0.032860416918992996 0.04621847718954086 0.009762427769601345 -0.03092292696237564 0.04743416607379913 0.010629708878695965 -0.03071252629160881 0.04743416607379913 0.01413146872073412 -0.032860416918992996 0.04501938074827194 0.014910995028913021 -0.028757328167557716 0.04743416607379913 0.016249999403953552 -0.02814582549035549 0.04743416607379913 0.016574887558817863 -0.02791447378695011 0.04743416607379913 0.020386120304465294 -0.025200508534908295 0.04743416607379913 0.019831938669085503 -0.02791595458984375 0.04619137942790985 0.021282974630594254 -0.024561861529946327 0.04743416607379913 0.023084068670868874 -0.022672927007079124 0.04743416607379913 0.025651641190052032 -0.022684788331389427 0.04619137942790985 0.02554672583937645 -0.020090166479349136 0.04743416607379913 0.026357771828770638 -0.018828153610229492 0.04743416607379913 0.03218717873096466 -0.011579635553061962 0.04621847718954086 0.03021889366209507 -0.011565830558538437 0.04743416607379913 0.028887152671813965 -0.01489236205816269 0.04743416607379913 0.032860416918992996 3.191891253699968E-18 0.04718519747257233 0.032352838665246964 -0.0030893213115632534 0.04743416607379913 0.03269167244434357 -0.005819702986627817 0.04694289714097977 0.03182820603251457 -0.005811361595988274 0.04743416607379913 0.031183522194623947 -0.009156308136880398 0.04743416607379913 0.03269167244434357 0.005819702986627817 0.04694289714097977 0.032352838665246964 0.0030893213115632534 0.04743416607379913 0.032352838665246964 3.903127820947816E-18 0.04743416607379913 0.03218717873096466 0.011579635553061962 0.04621847718954086 0.031183522194623947 0.009156308136880398 0.04743416607379913 0.03182820603251457 0.005811361595988274 0.04743416607379913 0.026357771828770638 0.018828153610229492 0.04743416607379913 0.027400657534599304 0.017205392941832542 0.04743416607379913 0.03135211020708084 0.017220642417669296 0.04501938074827194 0.028887152671813965 0.01489236205816269 0.04743416607379913 0.03021889366209507 0.011565830558538437 0.04743416607379913 0.030195048078894615 0.022684788331389427 0.04335792362689972 0.02554672583937645 0.020090166479349136 0.04743416607379913 0.016249999403953552 0.02814582549035549 0.04743416607379913 0.016574887558817863 0.02791447378695011 0.04743416607379913 0.019831938669085503 0.02791595458984375 0.04619137942790985 0.020386120304465294 0.025200508534908295 0.04743416607379913 0.024405231699347496 0.02791595458984375 0.043946947902441025 0.009762427769601345 0.03092292696237564 0.04743416607379913 0.010629708878695965 0.03071252629160881 0.04743416607379913 0.01413146872073412 0.032860416918992996 0.04501938074827194 0.014910995028913021 0.028757328167557716 0.04743416607379913 0.018615413457155228 0.032860416918992996 0.04335792362689972 0.009502389468252659 0.032860416918992996 0.04621847718954086 0.0047757187858223915 0.032860416918992996 0.04694289714097977 0.004827035125344992 0.0321202389895916 0.04743416607379913 -0.0047757187858223915 0.032860416918992996 0.04694289714097977 -0.0015464122407138348 0.032463189214468 0.04743416607379913 3.469446951953614E-18 0.032860416918992996 0.04718519747257233 1.835310792230871E-09 0.032389525324106216 0.04743416607379913 0.004625232424587011 0.032169196754693985 0.04743416607379913 -0.009502389468252659 0.032860416918992996 0.04621847718954086 -0.007662165444344282 0.03158387541770935 0.04743416607379913 -0.004835850093513727 0.03199023753404617 0.04743416607379913 -0.01413146872073412 0.032860416918992996 0.04501938074827194 -0.01350098755210638 0.029563039541244507 0.04743416607379913 -0.009771042503416538 0.030853986740112305 0.04743416607379913 -0.016361411660909653 0.02791157364845276 0.04743416607379913 -0.014911447651684284 0.028748709708452225 0.04743416607379913 -0.01885185018181801 0.026473717764019966 0.04743416607379913 -0.019831938669085503 0.02791595458984375 0.04619137942790985 -0.02039327472448349 0.025138065218925476 0.04743416607379913 -0.02322734333574772 0.02268233150243759 0.04743416607379913 -0.03218717873096466 0.011579635553061962 0.04621847718954086 -0.030171958729624748 0.012079029344022274 0.04743416607379913 -0.027523139491677284 0.017217019572854042 0.04743416607379913 -0.027340739965438843 0.017570827156305313 0.04743416607379913 -0.025651641190052032 0.022684788331389427 0.04619137942790985 -0.02636338211596012 0.018813638016581535 0.04743416607379913 -0.023521356284618378 0.022427568212151527 0.04743416607379913 -0.03194437175989151 -0.005818808451294899 0.04743416607379913 -0.032499998807907104 -7.960203880059101E-18 0.04743416607379913 -0.032860416918992996 3.191891253699968E-18 0.04718519747257233 -0.03194437175989151 0.005818808451294899 0.04743416607379913 -0.03269167244434357 0.005819702986627817 0.04694289714097977 -0.03191268444061279 0.0061506652273237705 0.04743416607379913 -0.03031965345144272 0.011576022021472454 0.04743416607379913 -0.024405231699347496 -0.02791595458984375 0.043946947902441025 -0.01726425439119339 -0.037464242428541183 0.03999999910593033 -0.02482450008392334 -0.03284354507923126 0.03999999910593033 0.027400657534599304 -0.017205392941832542 0.04743416607379913 -0.034369662404060364 -0.022657662630081177 0.03999999910593033 0.034369662404060364 0.022657662630081177 0.03999999910593033 0.027976321056485176 0.030390385538339615 0.03999999910593033 0.022592667490243912 0.03458065167069435 0.03999999910593033 -0.02279762178659439 0.021737487986683846 0.0807500034570694 -0.023521356284618378 0.022427568212151527 0.0807500034570694 -0.026499485597014427 0.01703018508851528 0.0807500034570694 -0.027340739965438843 0.017570827156305313 0.0807500034570694 -0.02924359031021595 0.01170736737549305 0.0807500034570694 -0.030171958729624748 0.012079029344022274 0.0807500034570694 -0.03093075379729271 0.00596141442656517 0.0807500034570694 -0.03191268444061279 0.0061506652273237705 0.0807500034570694 -0.03150000050663948 0 0.0807500034570694 -0.032499998807907104 0 0.0807500034570694 -0.03093075379729271 -0.00596141442656517 0.0807500034570694 -0.03191268444061279 -0.0061506652273237705 0.0807500034570694 -0.02924359031021595 -0.01170736737549305 0.0807500034570694 -0.030171958729624748 -0.012079029344022274 0.0807500034570694 -0.026499485597014427 -0.01703018508851528 0.0807500034570694 -0.027340739965438843 -0.017570827156305313 0.0807500034570694 -0.02279762178659439 -0.021737487986683846 0.0807500034570694 -0.023521356284618378 -0.022427568212151527 0.0807500034570694 -0.0182717926800251 -0.025659142062067986 0.0807500034570694 -0.01885185018181801 -0.026473717764019966 0.0807500034570694 -0.013085572980344296 -0.028653407469391823 0.0807500034570694 -0.01350098755210638 -0.029563039541244507 0.0807500034570694 -0.007426406256854534 -0.03061206452548504 0.0807500034570694 -0.007662165444344282 -0.03158387541770935 0.0807500034570694 -0.0014988303883001208 -0.03146431967616081 0.0807500034570694 -0.0015464122407138348 -0.032463189214468 0.0807500034570694 0.004482917487621307 -0.03117937594652176 0.0807500034570694 0.004625232424587011 -0.032169196754693985 0.0807500034570694 0.010302640497684479 -0.02976752631366253 0.0807500034570694 0.010629708878695965 -0.03071252629160881 0.0807500034570694 0.01575000025331974 -0.027279799804091454 0.0807500034570694 0.016249999403953552 -0.02814582549035549 0.0807500034570694 0.02062811329960823 -0.02380611188709736 0.0807500034570694 0.021282974630594254 -0.024561861529946327 0.0807500034570694 0.024760672822594643 -0.01947200857102871 0.0807500034570694 0.02554672583937645 -0.020090166479349136 0.0807500034570694 0.027998317033052444 -0.014434135518968105 0.0807500034570694 0.028887152671813965 -0.01489236205816269 0.0807500034570694 0.0302240289747715 -0.008874575607478619 0.0807500034570694 0.031183522194623947 -0.009156308136880398 0.0807500034570694 0.03135736659169197 -0.0029942654073238373 0.0807500034570694 0.032352838665246964 -0.0030893213115632534 0.0807500034570694 0.03150000050663948 1.1572911896661999E-17 0.0807500034570694 0.032499998807907104 3.9801019400295505E-18 0.0807500034570694 0.03135736659169197 0.0029942654073238373 0.0807500034570694 0.032352838665246964 0.0030893213115632534 0.0807500034570694 0.0302240289747715 0.008874575607478619 0.0807500034570694 0.031183522194623947 0.009156308136880398 0.0807500034570694 0.027998317033052444 0.014434135518968105 0.0807500034570694 0.028887152671813965 0.01489236205816269 0.0807500034570694 0.024760672822594643 0.01947200857102871 0.0807500034570694 0.02554672583937645 0.020090166479349136 0.0807500034570694 0.02062811329960823 0.02380611188709736 0.0807500034570694 0.021282974630594254 0.024561861529946327 0.0807500034570694 0.01575000025331974 0.027279799804091454 0.0807500034570694 0.016249999403953552 0.02814582549035549 0.0807500034570694 0.010302640497684479 0.02976752631366253 0.0807500034570694 0.010629708878695965 0.03071252629160881 0.0807500034570694 0.004482917487621307 0.03117937594652176 0.0807500034570694 0.004625232424587011 0.032169196754693985 0.0807500034570694 -0.0014988303883001208 0.03146431967616081 0.0807500034570694 -0.0015464122407138348 0.032463189214468 0.0807500034570694 -0.007426406256854534 0.03061206452548504 0.0807500034570694 -0.007662165444344282 0.03158387541770935 0.0807500034570694 -0.013085572980344296 0.028653407469391823 0.0807500034570694 -0.01350098755210638 0.029563039541244507 0.0807500034570694 -0.0182717926800251 0.025659142062067986 0.0807500034570694 -0.01885185018181801 0.026473717764019966 0.0807500034570694 0.032499998807907104 1.1940306647269264E-17 0.0807500034570694 -0.032499998807907104 0 0.04743416607379913 0.03135736659169197 0.0029942654073238373 0.08399999886751175 0.03150000050663948 1.1572911896661999E-17 0.08399999886751175 0.03150000050663948 3.8576374367507685E-18 0.0807500034570694 0.0302240289747715 0.008874575607478619 0.08399999886751175 0.027998317033052444 0.014434135518968105 0.08399999886751175 0.024760672822594643 0.01947200857102871 0.08399999886751175 0.02062811329960823 0.02380611188709736 0.08399999886751175 0.01575000025331974 0.027279799804091454 0.08399999886751175 0.010302640497684479 0.02976752631366253 0.08399999886751175 0.004482917487621307 0.03117937594652176 0.08399999886751175 -0.0014988303883001208 0.03146431967616081 0.08399999886751175 -0.007426406256854534 0.03061206452548504 0.08399999886751175 -0.013085572980344296 0.028653407469391823 0.08399999886751175 -0.0182717926800251 0.025659142062067986 0.08399999886751175 -0.02279762178659439 0.021737487986683846 0.08399999886751175 -0.026499485597014427 0.01703018508851528 0.08399999886751175 -0.02924359031021595 0.01170736737549305 0.08399999886751175 -0.03093075379729271 0.00596141442656517 0.08399999886751175 -0.03150000050663948 0 0.08399999886751175 -0.03093075379729271 -0.00596141442656517 0.08399999886751175 -0.02924359031021595 -0.01170736737549305 0.08399999886751175 -0.026499485597014427 -0.01703018508851528 0.08399999886751175 -0.02279762178659439 -0.021737487986683846 0.08399999886751175 -0.0182717926800251 -0.025659142062067986 0.08399999886751175 -0.013085572980344296 -0.028653407469391823 0.08399999886751175 -0.007426406256854534 -0.03061206452548504 0.08399999886751175 -0.0014988303883001208 -0.03146431967616081 0.08399999886751175 0.004482917487621307 -0.03117937594652176 0.08399999886751175 0.010302640497684479 -0.02976752631366253 0.08399999886751175 0.01575000025331974 -0.027279799804091454 0.08399999886751175 0.02062811329960823 -0.02380611188709736 0.08399999886751175 0.024760672822594643 -0.01947200857102871 0.08399999886751175 0.027998317033052444 -0.014434135518968105 0.08399999886751175 0.0302240289747715 -0.008874575607478619 0.08399999886751175 0.03135736659169197 -0.0029942654073238373 0.08399999886751175 0.03150000050663948 3.8576374367507685E-18 0.08399999886751175 0.04130677878856659 0 0.03999999910593033 </float_array>
          <technique_common>
            <accessor source="#mesh_1-position-array" count="367" stride="3">
              <param name="X" type="float" />
              <param name="Y" type="float" />
              <param name="Z" type="float" />
            </accessor>
          </technique_common>
        </source>
        <source id="mesh_1-normal" name="normal">
          <float_array id="mesh_1-normal-array" count="3">0 0 0 </float_array>
          <technique_common>
            <accessor source="#mesh_1-normal-array" count="1" stride="3">
              <param name="X" type="float" />
              <param name="Y" type="float" />
              <param name="Z" type="float" />
            </accessor>
          </technique_common>
        </source>
        <vertices id="mesh_1-vertices">
          <input semantic="POSITION" source="#mesh_1-position" />
        </vertices>
        <triangles material="default" count="720">
          <input semantic="VERTEX" source="#mesh_1-vertices" offset="0" />
          <input semantic="NORMAL" source="#mesh_1-normal" offset="1" />
          <p>0 0 1 0 2 0 3 0 4 0 5 0 6 0 7 0 8 0 9 0 10 0 11 0 12 0 13 0 14 0 15 0 16 0 17 0 18 0 19 0 20 0 21 0 22 0 23 0 24 0 25 0 26 0 27 0 28 0 26 0 26 0 28 0 29 0 26 0 29 0 24 0 30 0 31 0 27 0 27 0 31 0 32 0 27 0 32 0 28 0 33 0 34 0 30 0 35 0 36 0 34 0 34 0 36 0 37 0 34 0 37 0 30 0 38 0 39 0 40 0 40 0 39 0 41 0 40 0 41 0 42 0 43 0 44 0 45 0 45 0 44 0 46 0 45 0 46 0 47 0 48 0 49 0 50 0 50 0 49 0 51 0 50 0 51 0 52 0 52 0 51 0 53 0 53 0 51 0 54 0 53 0 54 0 55 0 55 0 54 0 56 0 55 0 56 0 57 0 57 0 56 0 58 0 58 0 56 0 59 0 58 0 59 0 60 0 60 0 59 0 61 0 61 0 59 0 62 0 61 0 62 0 63 0 63 0 62 0 64 0 63 0 64 0 65 0 65 0 64 0 66 0 66 0 64 0 67 0 66 0 67 0 68 0 69 0 70 0 71 0 71 0 70 0 72 0 71 0 72 0 67 0 67 0 72 0 73 0 67 0 73 0 68 0 74 0 75 0 17 0 17 0 75 0 76 0 17 0 76 0 15 0 77 0 78 0 79 0 79 0 78 0 80 0 79 0 80 0 81 0 81 0 80 0 82 0 81 0 82 0 74 0 74 0 82 0 83 0 74 0 83 0 75 0 84 0 85 0 77 0 77 0 85 0 86 0 77 0 86 0 78 0 87 0 88 0 89 0 89 0 88 0 90 0 89 0 90 0 84 0 84 0 90 0 91 0 84 0 91 0 85 0 92 0 93 0 94 0 94 0 93 0 95 0 94 0 95 0 96 0 97 0 98 0 99 0 99 0 98 0 100 0 101 0 100 0 102 0 102 0 100 0 98 0 102 0 98 0 94 0 94 0 98 0 97 0 94 0 97 0 92 0 103 0 104 0 105 0 105 0 104 0 106 0 105 0 106 0 107 0 108 0 109 0 110 0 110 0 109 0 111 0 110 0 111 0 112 0 112 0 111 0 113 0 113 0 111 0 114 0 113 0 114 0 115 0 115 0 114 0 116 0 115 0 116 0 117 0 117 0 116 0 118 0 118 0 116 0 119 0 118 0 119 0 120 0 120 0 119 0 121 0 121 0 119 0 122 0 121 0 122 0 123 0 123 0 122 0 124 0 123 0 124 0 125 0 125 0 124 0 126 0 126 0 124 0 127 0 126 0 127 0 128 0 129 0 130 0 127 0 127 0 130 0 131 0 127 0 131 0 128 0 132 0 133 0 11 0 11 0 133 0 134 0 11 0 134 0 9 0 135 0 136 0 8 0 8 0 136 0 137 0 8 0 137 0 6 0 24 0 138 0 25 0 25 0 138 0 139 0 25 0 139 0 140 0 140 0 139 0 141 0 140 0 141 0 142 0 142 0 141 0 143 0 142 0 143 0 135 0 135 0 143 0 144 0 135 0 144 0 136 0 145 0 146 0 147 0 147 0 146 0 148 0 147 0 148 0 149 0 149 0 148 0 150 0 150 0 148 0 151 0 150 0 151 0 152 0 152 0 151 0 132 0 152 0 132 0 153 0 153 0 154 0 155 0 155 0 154 0 156 0 5 0 4 0 157 0 4 0 158 0 157 0 157 0 158 0 159 0 157 0 159 0 160 0 160 0 159 0 161 0 160 0 161 0 162 0 162 0 161 0 163 0 162 0 163 0 164 0 3 0 5 0 165 0 165 0 5 0 166 0 165 0 166 0 167 0 167 0 166 0 168 0 167 0 168 0 169 0 169 0 168 0 170 0 170 0 168 0 171 0 170 0 171 0 172 0 172 0 171 0 173 0 172 0 173 0 174 0 174 0 173 0 175 0 175 0 173 0 176 0 175 0 176 0 177 0 177 0 176 0 178 0 178 0 176 0 106 0 178 0 106 0 179 0 180 0 181 0 182 0 182 0 181 0 102 0 183 0 184 0 185 0 185 0 184 0 186 0 187 0 188 0 96 0 96 0 188 0 189 0 190 0 191 0 192 0 192 0 191 0 193 0 192 0 193 0 187 0 187 0 193 0 194 0 187 0 194 0 188 0 195 0 196 0 190 0 190 0 196 0 197 0 190 0 197 0 191 0 198 0 199 0 195 0 195 0 199 0 200 0 195 0 200 0 196 0 201 0 202 0 203 0 203 0 202 0 204 0 203 0 204 0 198 0 198 0 204 0 205 0 198 0 205 0 199 0 203 0 206 0 201 0 201 0 206 0 2 0 201 0 2 0 207 0 207 0 2 0 1 0 208 0 209 0 210 0 210 0 209 0 211 0 210 0 211 0 212 0 213 0 214 0 215 0 215 0 214 0 216 0 215 0 216 0 217 0 215 0 218 0 213 0 213 0 218 0 219 0 213 0 219 0 220 0 221 0 222 0 223 0 223 0 222 0 224 0 223 0 224 0 219 0 219 0 224 0 225 0 219 0 225 0 220 0 226 0 227 0 221 0 221 0 227 0 228 0 221 0 228 0 222 0 229 0 230 0 226 0 226 0 230 0 231 0 226 0 231 0 227 0 46 0 232 0 229 0 229 0 232 0 233 0 229 0 233 0 230 0 234 0 235 0 236 0 236 0 235 0 41 0 236 0 41 0 237 0 238 0 239 0 33 0 33 0 239 0 240 0 33 0 240 0 34 0 34 0 240 0 241 0 34 0 241 0 242 0 242 0 241 0 243 0 242 0 243 0 244 0 145 0 245 0 146 0 146 0 245 0 246 0 146 0 246 0 247 0 247 0 246 0 248 0 247 0 248 0 249 0 249 0 248 0 250 0 249 0 250 0 238 0 238 0 250 0 251 0 238 0 251 0 239 0 108 0 107 0 109 0 109 0 107 0 106 0 109 0 106 0 111 0 111 0 106 0 176 0 111 0 176 0 114 0 114 0 176 0 173 0 114 0 173 0 116 0 116 0 173 0 171 0 116 0 171 0 119 0 119 0 171 0 168 0 119 0 168 0 122 0 122 0 168 0 166 0 122 0 166 0 124 0 124 0 166 0 5 0 124 0 5 0 127 0 127 0 5 0 157 0 127 0 157 0 129 0 129 0 157 0 160 0 156 0 154 0 164 0 164 0 154 0 252 0 164 0 252 0 162 0 162 0 252 0 14 0 162 0 14 0 160 0 160 0 14 0 13 0 160 0 13 0 129 0 129 0 13 0 253 0 129 0 253 0 130 0 103 0 101 0 104 0 104 0 101 0 102 0 104 0 102 0 106 0 106 0 102 0 181 0 106 0 181 0 179 0 179 0 181 0 180 0 153 0 132 0 154 0 154 0 132 0 11 0 154 0 11 0 252 0 252 0 11 0 10 0 252 0 10 0 14 0 14 0 10 0 254 0 14 0 254 0 12 0 189 0 255 0 96 0 96 0 255 0 186 0 96 0 186 0 94 0 94 0 186 0 184 0 94 0 184 0 102 0 102 0 184 0 183 0 102 0 183 0 182 0 30 0 27 0 33 0 33 0 27 0 26 0 33 0 26 0 238 0 238 0 26 0 25 0 238 0 25 0 249 0 249 0 25 0 140 0 249 0 140 0 247 0 247 0 140 0 142 0 247 0 142 0 146 0 146 0 142 0 135 0 146 0 135 0 148 0 148 0 135 0 8 0 148 0 8 0 151 0 151 0 8 0 7 0 151 0 7 0 132 0 132 0 7 0 256 0 132 0 256 0 133 0 257 0 206 0 16 0 16 0 206 0 203 0 16 0 203 0 17 0 17 0 203 0 198 0 17 0 198 0 74 0 74 0 198 0 195 0 74 0 195 0 81 0 81 0 195 0 190 0 81 0 190 0 79 0 79 0 190 0 192 0 79 0 192 0 77 0 77 0 192 0 187 0 77 0 187 0 84 0 84 0 187 0 96 0 84 0 96 0 89 0 89 0 96 0 95 0 89 0 95 0 87 0 244 0 237 0 242 0 242 0 237 0 41 0 242 0 41 0 34 0 34 0 41 0 39 0 34 0 39 0 35 0 35 0 39 0 38 0 257 0 18 0 206 0 206 0 18 0 20 0 206 0 20 0 2 0 2 0 20 0 212 0 212 0 0 0 2 0 0 0 212 0 211 0 234 0 232 0 235 0 235 0 232 0 46 0 235 0 46 0 41 0 41 0 46 0 44 0 41 0 44 0 42 0 42 0 44 0 43 0 19 0 258 0 20 0 20 0 258 0 21 0 20 0 21 0 212 0 212 0 21 0 23 0 212 0 23 0 210 0 210 0 23 0 217 0 210 0 217 0 208 0 208 0 217 0 216 0 22 0 259 0 23 0 23 0 259 0 69 0 23 0 69 0 217 0 217 0 69 0 71 0 217 0 71 0 215 0 215 0 71 0 67 0 215 0 67 0 218 0 218 0 67 0 64 0 218 0 64 0 219 0 219 0 64 0 62 0 219 0 62 0 223 0 223 0 62 0 59 0 223 0 59 0 221 0 221 0 59 0 56 0 221 0 56 0 226 0 226 0 56 0 54 0 226 0 54 0 229 0 229 0 54 0 51 0 229 0 51 0 46 0 46 0 51 0 49 0 46 0 49 0 47 0 47 0 49 0 48 0 260 0 261 0 262 0 262 0 261 0 263 0 262 0 263 0 264 0 264 0 263 0 265 0 264 0 265 0 266 0 266 0 265 0 267 0 266 0 267 0 268 0 268 0 267 0 269 0 268 0 269 0 270 0 270 0 269 0 271 0 270 0 271 0 272 0 272 0 271 0 273 0 272 0 273 0 274 0 274 0 273 0 275 0 274 0 275 0 276 0 276 0 275 0 277 0 276 0 277 0 278 0 278 0 277 0 279 0 278 0 279 0 280 0 280 0 279 0 281 0 280 0 281 0 282 0 282 0 281 0 283 0 282 0 283 0 284 0 284 0 283 0 285 0 284 0 285 0 286 0 286 0 285 0 287 0 286 0 287 0 288 0 288 0 287 0 289 0 288 0 289 0 290 0 290 0 289 0 291 0 290 0 291 0 292 0 292 0 291 0 293 0 292 0 293 0 294 0 294 0 293 0 295 0 294 0 295 0 296 0 296 0 295 0 297 0 296 0 297 0 298 0 298 0 297 0 299 0 298 0 299 0 300 0 300 0 299 0 301 0 300 0 301 0 302 0 302 0 301 0 303 0 302 0 303 0 304 0 304 0 303 0 305 0 304 0 305 0 306 0 306 0 305 0 307 0 306 0 307 0 308 0 308 0 307 0 309 0 308 0 309 0 310 0 310 0 309 0 311 0 310 0 311 0 312 0 312 0 311 0 313 0 312 0 313 0 314 0 314 0 313 0 315 0 314 0 315 0 316 0 316 0 315 0 317 0 316 0 317 0 318 0 318 0 317 0 319 0 318 0 319 0 320 0 320 0 319 0 321 0 320 0 321 0 322 0 322 0 321 0 323 0 322 0 323 0 324 0 324 0 323 0 325 0 324 0 325 0 326 0 326 0 325 0 327 0 326 0 327 0 260 0 260 0 327 0 261 0 245 0 271 0 269 0 245 0 145 0 271 0 271 0 145 0 147 0 271 0 147 0 273 0 147 0 149 0 273 0 273 0 149 0 150 0 273 0 150 0 275 0 155 0 277 0 153 0 153 0 277 0 275 0 153 0 275 0 152 0 152 0 275 0 150 0 155 0 156 0 277 0 277 0 156 0 164 0 277 0 164 0 279 0 159 0 281 0 161 0 161 0 281 0 279 0 161 0 279 0 163 0 163 0 279 0 164 0 159 0 158 0 281 0 281 0 158 0 4 0 281 0 4 0 283 0 4 0 3 0 283 0 283 0 3 0 165 0 283 0 165 0 285 0 170 0 287 0 169 0 169 0 287 0 285 0 169 0 285 0 167 0 167 0 285 0 165 0 170 0 172 0 287 0 287 0 172 0 174 0 287 0 174 0 289 0 174 0 175 0 289 0 289 0 175 0 177 0 289 0 177 0 291 0 180 0 293 0 179 0 179 0 293 0 291 0 179 0 291 0 178 0 178 0 291 0 177 0 185 0 295 0 183 0 183 0 295 0 293 0 183 0 293 0 182 0 182 0 293 0 180 0 185 0 186 0 295 0 295 0 186 0 255 0 295 0 255 0 297 0 255 0 189 0 297 0 297 0 189 0 188 0 297 0 188 0 299 0 188 0 194 0 299 0 299 0 194 0 193 0 299 0 193 0 301 0 301 0 193 0 191 0 301 0 191 0 328 0 328 0 191 0 197 0 328 0 197 0 305 0 197 0 196 0 305 0 305 0 196 0 200 0 305 0 200 0 307 0 200 0 199 0 307 0 307 0 199 0 205 0 307 0 205 0 309 0 201 0 311 0 202 0 202 0 311 0 309 0 202 0 309 0 204 0 204 0 309 0 205 0 0 0 313 0 1 0 1 0 313 0 311 0 1 0 311 0 207 0 207 0 311 0 201 0 0 0 211 0 313 0 313 0 211 0 209 0 313 0 209 0 315 0 209 0 208 0 315 0 315 0 208 0 216 0 315 0 216 0 317 0 220 0 319 0 213 0 213 0 319 0 317 0 213 0 317 0 214 0 214 0 317 0 216 0 220 0 225 0 319 0 319 0 225 0 224 0 319 0 224 0 321 0 224 0 222 0 321 0 321 0 222 0 228 0 321 0 228 0 323 0 228 0 227 0 323 0 323 0 227 0 231 0 323 0 231 0 325 0 232 0 327 0 233 0 233 0 327 0 325 0 233 0 325 0 230 0 230 0 325 0 231 0 237 0 261 0 236 0 236 0 261 0 327 0 236 0 327 0 234 0 234 0 327 0 232 0 237 0 244 0 261 0 261 0 244 0 243 0 261 0 243 0 263 0 243 0 241 0 263 0 263 0 241 0 240 0 263 0 240 0 265 0 240 0 239 0 265 0 265 0 239 0 251 0 265 0 251 0 267 0 251 0 250 0 267 0 267 0 250 0 248 0 267 0 248 0 269 0 269 0 248 0 329 0 269 0 329 0 245 0 330 0 331 0 332 0 332 0 331 0 300 0 332 0 304 0 330 0 330 0 304 0 306 0 330 0 306 0 333 0 333 0 306 0 308 0 333 0 308 0 334 0 334 0 308 0 310 0 334 0 310 0 335 0 335 0 310 0 312 0 335 0 312 0 336 0 336 0 312 0 314 0 336 0 314 0 337 0 337 0 314 0 316 0 337 0 316 0 338 0 338 0 316 0 318 0 338 0 318 0 339 0 339 0 318 0 320 0 339 0 320 0 340 0 340 0 320 0 322 0 340 0 322 0 341 0 341 0 322 0 324 0 341 0 324 0 342 0 342 0 324 0 326 0 342 0 326 0 343 0 343 0 326 0 260 0 343 0 260 0 344 0 344 0 260 0 262 0 344 0 262 0 345 0 345 0 262 0 264 0 345 0 264 0 346 0 346 0 264 0 266 0 346 0 266 0 347 0 347 0 266 0 268 0 347 0 268 0 348 0 348 0 268 0 270 0 348 0 270 0 349 0 349 0 270 0 272 0 349 0 272 0 350 0 350 0 272 0 274 0 350 0 274 0 351 0 351 0 274 0 276 0 351 0 276 0 352 0 352 0 276 0 278 0 352 0 278 0 353 0 353 0 278 0 280 0 353 0 280 0 354 0 354 0 280 0 282 0 354 0 282 0 355 0 355 0 282 0 284 0 355 0 284 0 356 0 356 0 284 0 286 0 356 0 286 0 357 0 357 0 286 0 288 0 357 0 288 0 358 0 358 0 288 0 290 0 358 0 290 0 359 0 359 0 290 0 292 0 359 0 292 0 360 0 360 0 292 0 294 0 360 0 294 0 361 0 361 0 294 0 296 0 361 0 296 0 362 0 362 0 296 0 298 0 362 0 298 0 363 0 363 0 298 0 300 0 363 0 300 0 364 0 364 0 300 0 331 0 349 0 364 0 348 0 348 0 364 0 365 0 348 0 365 0 330 0 330 0 333 0 348 0 348 0 333 0 334 0 348 0 334 0 335 0 335 0 336 0 348 0 348 0 336 0 337 0 348 0 337 0 338 0 349 0 350 0 364 0 364 0 350 0 351 0 364 0 351 0 352 0 359 0 356 0 358 0 358 0 356 0 357 0 359 0 360 0 356 0 356 0 360 0 361 0 356 0 361 0 362 0 362 0 363 0 356 0 356 0 363 0 364 0 356 0 364 0 355 0 352 0 353 0 364 0 364 0 353 0 354 0 364 0 354 0 355 0 338 0 339 0 348 0 348 0 339 0 340 0 348 0 340 0 341 0 341 0 342 0 348 0 348 0 342 0 343 0 348 0 343 0 344 0 344 0 345 0 348 0 348 0 345 0 346 0 348 0 346 0 347 0 47 0 48 0 141 0 259 0 22 0 13 0 12 0 254 0 70 0 141 0 48 0 143 0 254 0 10 0 70 0 70 0 10 0 9 0 70 0 9 0 134 0 12 0 70 0 13 0 13 0 70 0 69 0 13 0 69 0 259 0 86 0 85 0 91 0 131 0 130 0 16 0 16 0 130 0 253 0 16 0 253 0 13 0 134 0 133 0 70 0 70 0 133 0 256 0 70 0 256 0 7 0 22 0 21 0 13 0 13 0 21 0 258 0 13 0 258 0 19 0 19 0 18 0 13 0 13 0 18 0 257 0 13 0 257 0 16 0 137 0 48 0 6 0 6 0 48 0 7 0 137 0 136 0 48 0 48 0 136 0 144 0 48 0 144 0 143 0 48 0 50 0 7 0 7 0 50 0 52 0 7 0 52 0 53 0 53 0 55 0 7 0 7 0 55 0 57 0 7 0 57 0 58 0 58 0 60 0 7 0 7 0 60 0 61 0 7 0 61 0 63 0 63 0 65 0 7 0 7 0 65 0 66 0 7 0 66 0 68 0 88 0 16 0 90 0 90 0 16 0 91 0 97 0 16 0 92 0 92 0 16 0 93 0 105 0 16 0 103 0 103 0 16 0 101 0 139 0 138 0 37 0 37 0 138 0 24 0 29 0 28 0 32 0 24 0 29 0 37 0 37 0 29 0 32 0 37 0 32 0 30 0 30 0 32 0 31 0 139 0 37 0 141 0 141 0 37 0 36 0 141 0 36 0 35 0 68 0 73 0 7 0 7 0 73 0 72 0 7 0 72 0 70 0 16 0 15 0 91 0 91 0 15 0 76 0 91 0 76 0 75 0 83 0 82 0 80 0 88 0 87 0 16 0 16 0 87 0 95 0 16 0 95 0 93 0 97 0 99 0 16 0 16 0 99 0 100 0 16 0 100 0 101 0 105 0 107 0 16 0 16 0 107 0 108 0 16 0 108 0 112 0 112 0 108 0 110 0 112 0 113 0 16 0 16 0 113 0 115 0 16 0 115 0 117 0 121 0 123 0 16 0 16 0 123 0 125 0 35 0 38 0 141 0 141 0 38 0 40 0 141 0 40 0 42 0 42 0 43 0 141 0 141 0 43 0 45 0 141 0 45 0 47 0 75 0 83 0 91 0 91 0 83 0 80 0 91 0 80 0 86 0 86 0 80 0 366 0 117 0 118 0 16 0 16 0 118 0 120 0 16 0 120 0 121 0 125 0 126 0 16 0 16 0 126 0 128 0 16 0 128 0 131 0</p>
        </triangles>
      </mesh>
    </geometry>
  </library_geometries>
  <library_images />
  <library_visual_scenes>
    <visual_scene id="Scene">
      <node id="node_1" sid="node_1" type="NODE">
        <matrix>1 0 0 0 0 1 0 0 0 0 1 0 0 0 0 1</matrix>
        <instance_geometry url="#mesh_1" />
      </node>
    </visual_scene>
  </library_visual_scenes>
  <library_animations />
  <scene>
    <instance_visual_scene url="#Scene" />
  </scene>
</COLLADA>