<?xml version="1.0" encoding="utf-8"?>
<COLLADA version="1.5.0" xmlns="http://www.collada.org/2008/03/COLLADASchema">
  <asset>
    <contributor />
    <unit meter="1" />
  </asset>
  <library_lights />
  <library_materials />
  <library_effects />
  <library_cameras />
  <library_geometries>
    <geometry id="mesh_1">
      <mesh>
        <source id="mesh_1-position" name="position">
          <float_array id="mesh_1-position-array" count="1110">-0.04031781107187271 -0.017291869968175888 0.043678391724824905 -0.04128902032971382 -0.017305944114923477 0.044273946434259415 -0.0417318269610405 -0.013524244539439678 0.043678391724824905 0.0267158355563879 -0.03487434610724449 0.043678391724824905 0.026291552931070328 -0.03666776418685913 0.044550735503435135 0.02401241473853588 -0.03665885701775551 0.043678391724824905 0.028714777901768684 -0.04395123943686485 0.05130000039935112 0.02322505973279476 -0.04692212864756584 0.05130000039935112 0.024685660377144814 -0.04251810535788536 0.0480169914662838 0.052211128175258636 -0.003486165776848793 0.05130000039935112 0.04791780561208725 -0.003493577241897583 0.047005169093608856 0.05249999836087227 -1.2221510073033703E-33 0.05130000039935112 0.04791780561208725 0.003493577241897583 0.047005169093608856 0.047472741454839706 0.010448283515870571 0.047509461641311646 0.0517839677631855 0.008641215972602367 0.05130000039935112 0.052211128175258636 0.003486165776848793 0.05130000039935112 0.04658674821257591 0.017305944114923477 0.04851336404681206 0.049655403941869736 0.017046721652150154 0.05130000039935112 0.05133005604147911 0.010433675721287727 0.05130000039935112 0.04417762905359268 0.028040416538715363 0.05130000039935112 0.0461723729968071 0.0249872375279665 0.05130000039935112 0.04526805505156517 0.024002868682146072 0.05000755190849304 0.04661019518971443 0.023989101871848106 0.05130000039935112 0.04954344406723976 0.01730196550488472 0.05130000039935112 0.03738453984260559 0.03664057329297066 0.05130000039935112 0.041429877281188965 0.032246168702840805 0.05130000039935112 0.03857891261577606 0.030476851388812065 0.0480169914662838 0.03622904792428017 0.037895772606134415 0.05130000039935112 0.0366792157292366 0.03666776418685913 0.05064074695110321 0.035557281225919724 0.038625504821538925 0.05130000039935112 0.03163228556513786 0.03666776418685913 0.04734517261385918 0.0305788591504097 0.042500369250774384 0.05130000039935112 0.029338933527469635 0.04346543923020363 0.05130000039935112 0.029700178653001785 0.04251810535788536 0.05064074695110321 0.028714777901768684 0.04395123943686485 0.05130000039935112 0.024685660377144814 0.04251810535788536 0.0480169914662838 0.012887988239526749 0.05089351534843445 0.05130000039935112 0.0176047682762146 0.04927423968911171 0.05130000039935112 0.017996516078710556 0.04797353595495224 0.05000755190849304 0.021089009940624237 0.04807810112833977 0.05130000039935112 0.021284103393554688 0.04797251895070076 0.05130000039935112 0.012975395657122135 0.04797353595495224 0.04851336404681206 0.007833759300410748 0.04797353595495224 0.047509461641311646 0.012302092276513577 0.05099128186702728 0.05130000039935112 0.007306505460292101 0.0518248975276947 0.05130000039935112 0.0043354155495762825 0.0523206852376461 0.05130000039935112 0.0026193626690655947 0.04797353595495224 0.047005169093608856 0.002418403746560216 0.0523206852376461 0.05130000039935112 -0.0026193626690655947 0.04797353595495224 0.047005169093608856 -0.002418403746560216 0.0523206852376461 0.05130000039935112 -0.0043354155495762825 0.0523206852376461 0.05130000039935112 -0.007833759300410748 0.04797353595495224 0.047509461641311646 -0.007306505460292101 0.0518248975276947 0.05130000039935112 -0.012302092276513577 0.05099128186702728 0.05130000039935112 -0.012975395657122135 0.04797353595495224 0.04851336404681206 -0.012887988239526749 0.05089351534843445 0.05130000039935112 -0.017996516078710556 0.04797353595495224 0.05000755190849304 -0.021284103393554688 0.04797251895070076 0.05130000039935112 -0.021089009940624237 0.04807810112833977 0.05130000039935112 -0.0176047682762146 0.04927423968911171 0.05130000039935112 -0.035557281225919724 0.038625504821538925 0.05130000039935112 -0.0305788591504097 0.042500369250774384 0.05130000039935112 -0.029700178653001785 0.04251810535788536 0.05064074695110321 -0.029338933527469635 0.04346543923020363 0.05130000039935112 -0.024685660377144814 0.04251810535788536 0.0480169914662838 -0.028714777901768684 0.04395123943686485 0.05130000039935112 -0.041429877281188965 0.032246168702840805 0.05130000039935112 -0.03738453984260559 0.03664057329297066 0.05130000039935112 -0.0366792157292366 0.03666776418685913 0.05064074695110321 -0.03622904792428017 0.037895772606134415 0.05130000039935112 -0.03163228556513786 0.03666776418685913 0.04734517261385918 -0.04658674821257591 0.017305944114923477 0.04851336404681206 -0.04661019518971443 0.023989101871848106 0.05130000039935112 -0.04526805505156517 0.024002868682146072 0.05000755190849304 -0.0461723729968071 0.0249872375279665 0.05130000039935112 -0.04417762905359268 0.028040416538715363 0.05130000039935112 -0.0517839677631855 0.008641215972602367 0.05130000039935112 -0.05133005604147911 0.010433675721287727 0.05130000039935112 -0.047472741454839706 0.010448283515870571 0.047509461641311646 -0.049655403941869736 0.017046721652150154 0.05130000039935112 -0.04954344406723976 0.01730196550488472 0.05130000039935112 -0.04791780561208725 -0.003493577241897583 0.047005169093608856 -0.05249999836087227 5.828670697302337E-18 0.05130000039935112 -0.04791780561208725 0.003493577241897583 0.047005169093608856 -0.052211128175258636 0.003486165776848793 0.05130000039935112 -0.047472741454839706 -0.010448283515870571 0.047509461641311646 -0.0517839677631855 -0.008641215972602367 0.05130000039935112 -0.052211128175258636 -0.003486165776848793 0.05130000039935112 -0.04658674821257591 -0.017305944114923477 0.04851336404681206 -0.049655403941869736 -0.017046721652150154 0.05130000039935112 -0.05133005604147911 -0.010433675721287727 0.05130000039935112 -0.04417762905359268 -0.028040416538715363 0.05130000039935112 -0.0461723729968071 -0.0249872375279665 0.05130000039935112 -0.04526805505156517 -0.024002868682146072 0.05000755190849304 -0.04661019518971443 -0.023989101871848106 0.05130000039935112 -0.04954344406723976 -0.01730196550488472 0.05130000039935112 -0.03857891261577606 -0.030476851388812065 0.0480169914662838 -0.040120285004377365 -0.024002868682146072 0.045888133347034454 -0.03738453984260559 -0.03664057329297066 0.05130000039935112 -0.041429877281188965 -0.032246168702840805 0.05130000039935112 -0.04260285943746567 -0.03045078180730343 0.05130000039935112 -0.03622904792428017 -0.037895772606134415 0.05130000039935112 -0.0366792157292366 -0.03666776418685913 0.05064074695110321 -0.035557281225919724 -0.038625504821538925 0.05130000039935112 -0.03163228556513786 -0.03666776418685913 0.04734517261385918 -0.0305788591504097 -0.042500369250774384 0.05130000039935112 -0.029338933527469635 -0.04346543923020363 0.05130000039935112 -0.029700178653001785 -0.04251810535788536 0.05064074695110321 -0.028714777901768684 -0.04395123943686485 0.05130000039935112 -0.024685660377144814 -0.04251810535788536 0.0480169914662838 -0.019441857933998108 -0.04251810535788536 0.045888133347034454 -0.021284103393554688 -0.04797251895070076 0.05130000039935112 -0.02322505973279476 -0.04692212864756584 0.05130000039935112 -0.017996516078710556 -0.04797353595495224 0.05000755190849304 -0.0176047682762146 -0.04927423968911171 0.05130000039935112 -0.021089009940624237 -0.04807810112833977 0.05130000039935112 -0.012887988239526749 -0.05089351534843445 0.05130000039935112 -0.012975395657122135 -0.04797353595495224 0.04851336404681206 -0.012302092276513577 -0.05099128186702728 0.05130000039935112 -0.007833759300410748 -0.04797353595495224 0.047509461641311646 -0.007306505460292101 -0.0518248975276947 0.05130000039935112 -0.0043354155495762825 -0.0523206852376461 0.05130000039935112 -0.0026193626690655947 -0.04797353595495224 0.047005169093608856 -0.002418403746560216 -0.0523206852376461 0.05130000039935112 0.0026193626690655947 -0.04797353595495224 0.047005169093608856 0.002418403746560216 -0.0523206852376461 0.05130000039935112 0.0043354155495762825 -0.0523206852376461 0.05130000039935112 0.007833759300410748 -0.04797353595495224 0.047509461641311646 0.007306505460292101 -0.0518248975276947 0.05130000039935112 0.012975395657122135 -0.04797353595495224 0.04851336404681206 0.012302092276513577 -0.05099128186702728 0.05130000039935112 0.017996516078710556 -0.04797353595495224 0.05000755190849304 0.0176047682762146 -0.04927423968911171 0.05130000039935112 0.012887988239526749 -0.05089351534843445 0.05130000039935112 0.019441857933998108 -0.04251810535788536 0.045888133347034454 0.021284103393554688 -0.04797251895070076 0.05130000039935112 0.021089009940624237 -0.04807810112833977 0.05130000039935112 0.03163228556513786 -0.03666776418685913 0.04734517261385918 0.035557281225919724 -0.038625504821538925 0.05130000039935112 0.029700178653001785 -0.04251810535788536 0.05064074695110321 0.0305788591504097 -0.042500369250774384 0.05130000039935112 0.029338933527469635 -0.04346543923020363 0.05130000039935112 0.03857891261577606 -0.030476851388812065 0.0480169914662838 0.041429877281188965 -0.032246168702840805 0.05130000039935112 0.0366792157292366 -0.03666776418685913 0.05064074695110321 0.03738453984260559 -0.03664057329297066 0.05130000039935112 0.03622904792428017 -0.037895772606134415 0.05130000039935112 0.04658674821257591 -0.017305944114923477 0.04851336404681206 0.04661019518971443 -0.023989101871848106 0.05130000039935112 0.04526805505156517 -0.024002868682146072 0.05000755190849304 0.0461723729968071 -0.0249872375279665 0.05130000039935112 0.04417762905359268 -0.028040416538715363 0.05130000039935112 0.0517839677631855 -0.008641215972602367 0.05130000039935112 0.05133005604147911 -0.010433675721287727 0.05130000039935112 0.047472741454839706 -0.010448283515870571 0.047509461641311646 0.049655403941869736 -0.017046721652150154 0.05130000039935112 0.04954344406723976 -0.01730196550488472 0.05130000039935112 0.04258152097463608 -0.010434133000671864 0.043678391724824905 0.043292902410030365 -0.007856503129005432 0.043678391724824905 0.04172671586275101 -0.01353144459426403 0.043678391724824905 0.04128902032971382 -0.017305944114923477 0.044273946434259415 0.041194334626197815 -0.015460492111742496 0.043678391724824905 0.04031357541680336 -0.017289405688643456 0.043678391724824905 0.03777174651622772 -0.022567568346858025 0.043678391724824905 0.040120285004377365 -0.024002868682146072 0.045888133347034454 0.03673991933465004 -0.023987755179405212 0.043678391724824905 0.0337989404797554 -0.028035666793584824 0.043678391724824905 0.033270590007305145 -0.030476851388812065 0.044550735503435135 0.03313514590263367 -0.028949303552508354 0.043678391724824905 0.031551554799079895 -0.03046336956322193 0.043678391724824905 0.027433551847934723 -0.034400586038827896 0.043678391724824905 0.014017480425536633 -0.04251810535788536 0.044273946434259415 0.014173198491334915 -0.041600100696086884 0.043678391724824905 0.0202310923486948 -0.03901083022356033 0.043678391724824905 0.005906263832002878 -0.04360178858041763 0.043678391724824905 0.00840890221297741 -0.04303057864308357 0.043678391724824905 0.01065634936094284 -0.042517613619565964 0.043678391724824905 0.013596748001873493 -0.041846487671136856 0.043678391724824905 0.002786078490316868 -0.04374191537499428 0.043678391724824905 -0.0019740525167435408 -0.04395569488406181 0.043678391724824905 -0.002782289171591401 -0.043846212327480316 0.043678391724824905 -0.008403124287724495 -0.04308481886982918 0.043678391724824905 -0.009790920652449131 -0.042896829545497894 0.043678391724824905 -0.010957522317767143 -0.042517777532339096 0.043678391724824905 -0.014195299707353115 -0.04146575927734375 0.043678391724824905 -0.014017480425536633 -0.04251810535788536 0.044273946434259415 -0.01729310117661953 -0.040459223091602325 0.043678391724824905 -0.020259002223610878 -0.038863200694322586 0.043678391724824905 -0.024239467456936836 -0.03672122210264206 0.043678391724824905 -0.024307135492563248 -0.03666726127266884 0.043678391724824905 -0.026740917935967445 -0.03472638502717018 0.043678391724824905 -0.026291552931070328 -0.03666776418685913 0.044550735503435135 -0.030406756326556206 -0.03180297464132309 0.043678391724824905 -0.031576890498399734 -0.030463647097349167 0.043678391724824905 -0.033820945769548416 -0.027895120903849602 0.043678391724824905 -0.033270590007305145 -0.030476851388812065 0.044550735503435135 -0.03559674695134163 -0.025862550362944603 0.043678391724824905 -0.03671834245324135 -0.023985320702195168 0.043678391724824905 -0.03964263200759888 -0.019090885296463966 0.043678391724824905 -0.043822869658470154 0.003944129683077335 0.043678391724824905 -0.043822869658470154 0.003493577241897583 0.043678391724824905 -0.043822869658470154 -0.003493577241897583 0.043678391724824905 -0.043822869658470154 -0.003944129683077335 0.043678391724824905 -0.04264363646507263 -0.010442240163683891 0.043678391724824905 -0.04264363646507263 0.010442240163683891 0.043678391724824905 -0.040120285004377365 0.024002868682146072 0.045888133347034454 -0.03964263200759888 0.019090885296463966 0.043678391724824905 -0.04128902032971382 0.017305944114923477 0.044273946434259415 -0.04031781107187271 0.017291869968175888 0.043678391724824905 -0.0417318269610405 0.013524244539439678 0.043678391724824905 -0.030406756326556206 0.03180297464132309 0.043678391724824905 -0.031576890498399734 0.030463647097349167 0.043678391724824905 -0.033270590007305145 0.030476851388812065 0.044550735503435135 -0.033820945769548416 0.027895120903849602 0.043678391724824905 -0.03857891261577606 0.030476851388812065 0.0480169914662838 -0.03559674695134163 0.025862550362944603 0.043678391724824905 -0.03671834245324135 0.023985320702195168 0.043678391724824905 -0.024239467456936836 0.03672122210264206 0.043678391724824905 -0.024307135492563248 0.03666726127266884 0.043678391724824905 -0.026291552931070328 0.03666776418685913 0.044550735503435135 -0.026740917935967445 0.03472638502717018 0.043678391724824905 -0.02322505973279476 0.04692212864756584 0.05130000039935112 -0.019441857933998108 0.04251810535788536 0.045888133347034454 -0.020259002223610878 0.038863200694322586 0.043678391724824905 -0.009790920652449131 0.042896829545497894 0.043678391724824905 -0.010957522317767143 0.042517777532339096 0.043678391724824905 -0.014017480425536633 0.04251810535788536 0.044273946434259415 -0.014195299707353115 0.04146575927734375 0.043678391724824905 -0.01729310117661953 0.040459223091602325 0.043678391724824905 -0.008403124287724495 0.04308481886982918 0.043678391724824905 -0.002782289171591401 0.043846212327480316 0.043678391724824905 0.005906263832002878 0.04360178858041763 0.043678391724824905 0.002786078490316868 0.04374191537499428 0.043678391724824905 -0.0019740525167435408 0.04395569488406181 0.043678391724824905 0.01065634936094284 0.042517613619565964 0.043678391724824905 0.014017480425536633 0.04251810535788536 0.044273946434259415 0.013596748001873493 0.041846487671136856 0.043678391724824905 0.014173198491334915 0.041600100696086884 0.043678391724824905 0.0202310923486948 0.03901083022356033 0.043678391724824905 0.019441857933998108 0.04251810535788536 0.045888133347034454 0.00840890221297741 0.04303057864308357 0.043678391724824905 0.020850220695137978 0.03874620422720909 0.043678391724824905 0.02401241473853588 0.03665885701775551 0.043678391724824905 0.0267158355563879 0.03487434610724449 0.043678391724824905 0.026291552931070328 0.03666776418685913 0.044550735503435135 0.027433551847934723 0.034400586038827896 0.043678391724824905 0.031551554799079895 0.03046336956322193 0.043678391724824905 0.03313514590263367 0.028949303552508354 0.043678391724824905 0.033270590007305145 0.030476851388812065 0.044550735503435135 0.0337989404797554 0.028035666793584824 0.043678391724824905 0.040120285004377365 0.024002868682146072 0.045888133347034454 0.04031357541680336 0.017289405688643456 0.043678391724824905 0.03777174651622772 0.022567568346858025 0.043678391724824905 0.03673991933465004 0.023987755179405212 0.043678391724824905 0.04128902032971382 0.017305944114923477 0.044273946434259415 0.041194334626197815 0.015460492111742496 0.043678391724824905 0.04172671586275101 0.01353144459426403 0.043678391724824905 0.04258152097463608 0.010434133000671864 0.043678391724824905 0.04368608444929123 -0.003487881040200591 0.043678391724824905 0.04399999976158142 -1.0776892004964457E-17 0.043678391724824905 0.04368608444929123 0.003487881040200591 0.043678391724824905 0.043292902410030365 0.007856503129005432 0.043678391724824905 0.020850220695137978 -0.03874620422720909 0.043678391724824905 0.04260285943746567 -0.03045078180730343 0.05130000039935112 -0.04241436719894409 -0.011705621145665646 0.043678391724824905 0.04260285943746567 0.03045078180730343 0.05130000039935112 -0.04260285943746567 0.03045078180730343 0.05130000039935112 -0.04241436719894409 0.011705621145665646 0.043678391724824905 0.02322505973279476 0.04692212864756584 0.05130000039935112 -0.043822869658470154 -0.003944129683077335 0.011600001715123653 -0.03400000184774399 1.2491397532409243E-17 0.011600001715123653 -0.03325701877474785 -0.007068997714668512 0.011600001715123653 0.03106054477393627 -0.013829045929014683 0.011600001715123653 0.03777174651622772 -0.022567568346858025 0.011600001715123653 0.027506578713655472 -0.019984697923064232 0.011600001715123653 0.03313514590263367 -0.028949303552508354 0.011600001715123653 0.02275044098496437 -0.025266924872994423 0.011600001715123653 0.027433551847934723 -0.034400586038827896 0.011600001715123653 0.017000000923871994 -0.02944486401975155 0.011600001715123653 0.020850220695137978 -0.03874620422720909 0.011600001715123653 0.010506577789783478 -0.03233592212200165 0.011600001715123653 0.013596748001873493 -0.041846487671136856 0.011600001715123653 0.0035539676900953054 -0.03381374478340149 0.011600001715123653 0.005906263832002878 -0.04360178858041763 0.011600001715123653 -0.0035539676900953054 -0.03381374478340149 0.011600001715123653 -0.0019740525167435408 -0.04395569488406181 0.011600001715123653 -0.009790920652449131 -0.042896829545497894 0.011600001715123653 -0.010506577789783478 -0.03233592212200165 0.011600001715123653 -0.01729310117661953 -0.040459223091602325 0.011600001715123653 -0.017000000923871994 -0.02944486401975155 0.011600001715123653 -0.024239467456936836 -0.03672122210264206 0.011600001715123653 -0.02275044098496437 -0.025266924872994423 0.011600001715123653 -0.030406756326556206 -0.03180297464132309 0.011600001715123653 -0.027506578713655472 -0.019984697923064232 0.011600001715123653 -0.03559674695134163 -0.025862550362944603 0.011600001715123653 -0.03106054477393627 -0.013829045929014683 0.011600001715123653 -0.03964263200759888 -0.019090885296463966 0.011600001715123653 -0.04241436719894409 -0.011705621145665646 0.011600001715123653 0.027506578713655472 0.019984697923064232 0.011600001715123653 0.03777174651622772 0.022567568346858025 0.011600001715123653 0.03106054477393627 0.013829045929014683 0.011600001715123653 0.041194334626197815 0.015460492111742496 0.011600001715123653 0.03325701877474785 0.007068997714668512 0.011600001715123653 0.043292902410030365 0.007856503129005432 0.011600001715123653 0.03400000184774399 -3.2851958473937988E-34 0.011600001715123653 0.04399999976158142 -3.2851958473937988E-34 0.011600001715123653 0.03325701877474785 -0.007068997714668512 0.011600001715123653 0.043292902410030365 -0.007856503129005432 0.011600001715123653 0.041194334626197815 -0.015460492111742496 0.011600001715123653 -0.017000000923871994 0.02944486401975155 0.011600001715123653 -0.01729310117661953 0.040459223091602325 0.011600001715123653 -0.010506577789783478 0.03233592212200165 0.011600001715123653 -0.009790920652449131 0.042896829545497894 0.011600001715123653 -0.0035539676900953054 0.03381374478340149 0.011600001715123653 -0.0019740525167435408 0.04395569488406181 0.011600001715123653 0.0035539676900953054 0.03381374478340149 0.011600001715123653 0.005906263832002878 0.04360178858041763 0.011600001715123653 0.010506577789783478 0.03233592212200165 0.011600001715123653 0.013596748001873493 0.041846487671136856 0.011600001715123653 0.017000000923871994 0.02944486401975155 0.011600001715123653 0.020850220695137978 0.03874620422720909 0.011600001715123653 0.02275044098496437 0.025266924872994423 0.011600001715123653 0.027433551847934723 0.034400586038827896 0.011600001715123653 0.03313514590263367 0.028949303552508354 0.011600001715123653 -0.04399999976158142 5.388446002482228E-18 0.011600001715123653 -0.043822869658470154 0.003944129683077335 0.011600001715123653 -0.03325701877474785 0.007068997714668512 0.011600001715123653 -0.04241436719894409 0.011705621145665646 0.011600001715123653 -0.03106054477393627 0.013829045929014683 0.011600001715123653 -0.03964263200759888 0.019090885296463966 0.011600001715123653 -0.027506578713655472 0.019984697923064232 0.011600001715123653 -0.03559674695134163 0.025862550362944603 0.011600001715123653 -0.02275044098496437 0.025266924872994423 0.011600001715123653 -0.030406756326556206 0.03180297464132309 0.011600001715123653 -0.024239467456936836 0.03672122210264206 0.011600001715123653 -0.04399999976158142 1.616533759385638E-17 0.011600001715123653 0.04399999976158142 -3.2851958473937988E-34 0.043678391724824905 0.03325701877474785 0.007068997714668512 -1.1444092340440193E-09 0.03400000184774399 -3.2851958473937988E-34 -1.1444092340440193E-09 0.03325701877474785 -0.007068997714668512 -1.1444092340440193E-09 0.03106054477393627 -0.013829045929014683 -1.1444092340440193E-09 0.027506578713655472 -0.019984697923064232 -1.1444092340440193E-09 0.02275044098496437 -0.025266924872994423 -1.1444092340440193E-09 0.017000000923871994 -0.02944486401975155 -1.1444092340440193E-09 0.010506577789783478 -0.03233592212200165 -1.1444092340440193E-09 0.0035539676900953054 -0.03381374478340149 -1.1444092340440193E-09 -0.0035539676900953054 -0.03381374478340149 -1.1444092340440193E-09 -0.010506577789783478 -0.03233592212200165 -1.1444092340440193E-09 -0.017000000923871994 -0.02944486401975155 -1.1444092340440193E-09 -0.02275044098496437 -0.025266924872994423 -1.1444092340440193E-09 -0.027506578713655472 -0.019984697923064232 -1.1444092340440193E-09 -0.03106054477393627 -0.013829045929014683 -1.1444092340440193E-09 -0.03325701877474785 -0.007068997714668512 -1.1444092340440193E-09 -0.03400000184774399 4.163799315333183E-18 0.011600001715123653 -0.03400000184774399 4.163799315333183E-18 -1.1444092340440193E-09 -0.03325701877474785 0.007068997714668512 -1.1444092340440193E-09 -0.03106054477393627 0.013829045929014683 -1.1444092340440193E-09 -0.027506578713655472 0.019984697923064232 -1.1444092340440193E-09 -0.02275044098496437 0.025266924872994423 -1.1444092340440193E-09 -0.017000000923871994 0.02944486401975155 -1.1444092340440193E-09 -0.010506577789783478 0.03233592212200165 -1.1444092340440193E-09 -0.0035539676900953054 0.03381374478340149 -1.1444092340440193E-09 0.0035539676900953054 0.03381374478340149 -1.1444092340440193E-09 0.010506577789783478 0.03233592212200165 -1.1444092340440193E-09 0.017000000923871994 0.02944486401975155 -1.1444092340440193E-09 0.02275044098496437 0.025266924872994423 -1.1444092340440193E-09 0.027506578713655472 0.019984697923064232 -1.1444092340440193E-09 0.03106054477393627 0.013829045929014683 -1.1444092340440193E-09 0.05249999836087227 -3.2851958473937988E-34 0.05130000039935112 -0.05249999836087227 -3.2851958473937988E-34 0.05130000039935112 </float_array>
          <technique_common>
            <accessor source="#mesh_1-position-array" count="370" stride="3">
              <param name="X" type="float" />
              <param name="Y" type="float" />
              <param name="Z" type="float" />
            </accessor>
          </technique_common>
        </source>
        <source id="mesh_1-normal" name="normal">
          <float_array id="mesh_1-normal-array" count="3">0 0 0 </float_array>
          <technique_common>
            <accessor source="#mesh_1-normal-array" count="1" stride="3">
              <param name="X" type="float" />
              <param name="Y" type="float" />
              <param name="Z" type="float" />
            </accessor>
          </technique_common>
        </source>
        <vertices id="mesh_1-vertices">
          <input semantic="POSITION" source="#mesh_1-position" />
        </vertices>
        <triangles material="default" count="726">
          <input semantic="VERTEX" source="#mesh_1-vertices" offset="0" />
          <input semantic="NORMAL" source="#mesh_1-normal" offset="1" />
          <p>0 0 1 0 2 0 3 0 4 0 5 0 6 0 7 0 8 0 9 0 10 0 11 0 11 0 10 0 12 0 13 0 14 0 12 0 12 0 14 0 15 0 12 0 15 0 11 0 16 0 17 0 13 0 13 0 17 0 18 0 13 0 18 0 14 0 19 0 20 0 21 0 21 0 20 0 22 0 21 0 22 0 23 0 24 0 25 0 26 0 27 0 28 0 29 0 29 0 28 0 30 0 29 0 30 0 31 0 32 0 33 0 34 0 34 0 33 0 35 0 36 0 37 0 38 0 38 0 37 0 39 0 38 0 39 0 40 0 41 0 42 0 43 0 43 0 42 0 44 0 44 0 42 0 45 0 45 0 42 0 46 0 45 0 46 0 47 0 47 0 46 0 48 0 47 0 48 0 49 0 49 0 48 0 50 0 50 0 48 0 51 0 50 0 51 0 52 0 53 0 54 0 55 0 55 0 54 0 56 0 57 0 58 0 56 0 56 0 58 0 59 0 56 0 59 0 55 0 60 0 61 0 62 0 62 0 61 0 63 0 62 0 63 0 64 0 64 0 63 0 65 0 66 0 67 0 68 0 68 0 67 0 69 0 68 0 69 0 70 0 71 0 72 0 73 0 73 0 72 0 74 0 73 0 74 0 75 0 76 0 77 0 78 0 78 0 77 0 79 0 78 0 79 0 71 0 71 0 79 0 80 0 71 0 80 0 72 0 81 0 82 0 83 0 83 0 82 0 84 0 83 0 84 0 76 0 85 0 86 0 81 0 81 0 86 0 87 0 81 0 87 0 82 0 88 0 89 0 85 0 85 0 89 0 90 0 85 0 90 0 86 0 91 0 92 0 93 0 93 0 92 0 94 0 93 0 94 0 95 0 96 0 91 0 97 0 97 0 91 0 93 0 97 0 93 0 88 0 88 0 93 0 95 0 88 0 95 0 89 0 98 0 99 0 96 0 96 0 99 0 100 0 96 0 100 0 91 0 101 0 102 0 103 0 103 0 102 0 104 0 103 0 104 0 105 0 106 0 107 0 108 0 108 0 107 0 109 0 110 0 111 0 109 0 109 0 111 0 112 0 109 0 112 0 108 0 113 0 114 0 115 0 114 0 113 0 116 0 116 0 113 0 117 0 116 0 117 0 118 0 118 0 117 0 119 0 118 0 119 0 120 0 120 0 119 0 121 0 121 0 119 0 122 0 121 0 122 0 123 0 123 0 122 0 124 0 123 0 124 0 125 0 125 0 124 0 126 0 126 0 124 0 127 0 126 0 127 0 128 0 129 0 130 0 128 0 131 0 132 0 133 0 8 0 7 0 134 0 134 0 7 0 135 0 134 0 135 0 131 0 131 0 135 0 136 0 131 0 136 0 132 0 137 0 138 0 139 0 139 0 138 0 140 0 139 0 140 0 141 0 142 0 143 0 144 0 144 0 143 0 145 0 144 0 145 0 146 0 147 0 148 0 149 0 149 0 148 0 150 0 149 0 150 0 151 0 152 0 153 0 154 0 154 0 153 0 155 0 154 0 155 0 147 0 147 0 155 0 156 0 147 0 156 0 148 0 157 0 158 0 154 0 154 0 158 0 10 0 154 0 10 0 152 0 152 0 10 0 9 0 159 0 160 0 161 0 161 0 160 0 162 0 162 0 160 0 163 0 163 0 160 0 164 0 163 0 164 0 165 0 166 0 167 0 168 0 168 0 167 0 169 0 169 0 167 0 170 0 170 0 167 0 137 0 170 0 137 0 3 0 171 0 172 0 173 0 174 0 175 0 127 0 127 0 175 0 176 0 128 0 127 0 129 0 129 0 127 0 176 0 129 0 176 0 171 0 171 0 176 0 177 0 171 0 177 0 172 0 174 0 127 0 178 0 178 0 127 0 124 0 178 0 124 0 179 0 179 0 124 0 122 0 179 0 122 0 180 0 180 0 122 0 119 0 180 0 119 0 181 0 181 0 119 0 182 0 182 0 119 0 117 0 182 0 117 0 183 0 184 0 185 0 186 0 186 0 185 0 110 0 186 0 110 0 187 0 187 0 110 0 188 0 188 0 110 0 109 0 188 0 109 0 189 0 190 0 191 0 192 0 192 0 191 0 104 0 192 0 104 0 193 0 194 0 195 0 196 0 196 0 195 0 96 0 196 0 96 0 197 0 197 0 96 0 97 0 197 0 97 0 198 0 199 0 200 0 83 0 83 0 200 0 201 0 83 0 201 0 81 0 81 0 201 0 202 0 81 0 202 0 85 0 85 0 202 0 203 0 76 0 78 0 83 0 83 0 78 0 204 0 83 0 204 0 199 0 205 0 206 0 207 0 207 0 206 0 208 0 207 0 208 0 209 0 210 0 211 0 212 0 212 0 211 0 213 0 212 0 213 0 214 0 214 0 213 0 215 0 214 0 215 0 205 0 205 0 215 0 216 0 205 0 216 0 206 0 217 0 218 0 219 0 219 0 218 0 220 0 219 0 220 0 70 0 65 0 221 0 64 0 64 0 221 0 222 0 64 0 222 0 223 0 224 0 225 0 226 0 226 0 225 0 227 0 226 0 227 0 222 0 222 0 227 0 228 0 222 0 228 0 223 0 53 0 52 0 54 0 54 0 52 0 51 0 54 0 51 0 229 0 229 0 51 0 48 0 229 0 48 0 230 0 42 0 231 0 46 0 46 0 231 0 232 0 46 0 232 0 48 0 48 0 232 0 233 0 48 0 233 0 230 0 234 0 235 0 236 0 236 0 235 0 237 0 238 0 237 0 239 0 239 0 237 0 235 0 239 0 235 0 41 0 41 0 235 0 234 0 41 0 234 0 42 0 42 0 234 0 240 0 42 0 240 0 231 0 238 0 239 0 241 0 241 0 239 0 35 0 241 0 35 0 242 0 243 0 244 0 245 0 245 0 244 0 30 0 245 0 30 0 246 0 247 0 248 0 249 0 249 0 248 0 26 0 249 0 26 0 250 0 251 0 252 0 250 0 250 0 252 0 253 0 250 0 253 0 249 0 251 0 254 0 255 0 255 0 254 0 256 0 251 0 250 0 254 0 254 0 250 0 16 0 254 0 16 0 256 0 256 0 16 0 13 0 256 0 13 0 257 0 158 0 258 0 10 0 10 0 258 0 259 0 10 0 259 0 12 0 12 0 259 0 260 0 12 0 260 0 13 0 13 0 260 0 261 0 13 0 261 0 257 0 5 0 4 0 262 0 262 0 4 0 8 0 262 0 8 0 173 0 173 0 8 0 134 0 173 0 134 0 171 0 171 0 134 0 131 0 171 0 131 0 129 0 129 0 131 0 133 0 129 0 133 0 130 0 115 0 111 0 113 0 113 0 111 0 110 0 113 0 110 0 117 0 117 0 110 0 185 0 117 0 185 0 183 0 183 0 185 0 184 0 3 0 137 0 4 0 4 0 137 0 139 0 4 0 139 0 8 0 8 0 139 0 141 0 8 0 141 0 6 0 106 0 105 0 107 0 107 0 105 0 104 0 107 0 104 0 109 0 109 0 104 0 191 0 109 0 191 0 189 0 189 0 191 0 190 0 165 0 164 0 166 0 166 0 164 0 142 0 166 0 142 0 167 0 167 0 142 0 144 0 167 0 144 0 137 0 137 0 144 0 146 0 137 0 146 0 138 0 101 0 98 0 102 0 102 0 98 0 96 0 102 0 96 0 104 0 104 0 96 0 195 0 104 0 195 0 193 0 193 0 195 0 194 0 157 0 154 0 159 0 159 0 154 0 147 0 159 0 147 0 160 0 160 0 147 0 149 0 160 0 149 0 164 0 164 0 149 0 151 0 164 0 151 0 142 0 142 0 151 0 263 0 142 0 263 0 143 0 203 0 264 0 85 0 85 0 264 0 2 0 85 0 2 0 88 0 88 0 2 0 1 0 88 0 1 0 97 0 1 0 0 0 97 0 97 0 0 0 198 0 25 0 265 0 26 0 26 0 265 0 19 0 26 0 19 0 250 0 250 0 19 0 21 0 250 0 21 0 16 0 16 0 21 0 23 0 16 0 23 0 17 0 266 0 214 0 75 0 75 0 214 0 205 0 75 0 205 0 73 0 73 0 205 0 207 0 73 0 207 0 71 0 71 0 207 0 209 0 71 0 209 0 78 0 78 0 209 0 267 0 78 0 267 0 204 0 247 0 246 0 248 0 248 0 246 0 30 0 248 0 30 0 26 0 26 0 30 0 28 0 26 0 28 0 24 0 24 0 28 0 27 0 266 0 66 0 214 0 214 0 66 0 68 0 214 0 68 0 212 0 212 0 68 0 70 0 212 0 70 0 210 0 210 0 70 0 220 0 243 0 242 0 244 0 244 0 242 0 35 0 244 0 35 0 30 0 30 0 35 0 33 0 30 0 33 0 31 0 31 0 33 0 32 0 69 0 60 0 70 0 70 0 60 0 62 0 70 0 62 0 219 0 219 0 62 0 64 0 219 0 64 0 217 0 217 0 64 0 223 0 43 0 36 0 41 0 41 0 36 0 38 0 41 0 38 0 239 0 239 0 38 0 40 0 239 0 40 0 35 0 35 0 40 0 268 0 35 0 268 0 34 0 221 0 57 0 222 0 222 0 57 0 56 0 222 0 56 0 226 0 226 0 56 0 54 0 226 0 54 0 224 0 224 0 54 0 229 0 269 0 270 0 271 0 272 0 273 0 274 0 274 0 273 0 275 0 274 0 275 0 276 0 276 0 275 0 277 0 276 0 277 0 278 0 278 0 277 0 279 0 278 0 279 0 280 0 280 0 279 0 281 0 280 0 281 0 282 0 282 0 281 0 283 0 282 0 283 0 284 0 283 0 285 0 284 0 284 0 285 0 286 0 284 0 286 0 287 0 287 0 286 0 288 0 287 0 288 0 289 0 289 0 288 0 290 0 289 0 290 0 291 0 291 0 290 0 292 0 291 0 292 0 293 0 293 0 292 0 294 0 293 0 294 0 295 0 295 0 294 0 296 0 295 0 296 0 271 0 271 0 296 0 297 0 271 0 297 0 269 0 298 0 299 0 300 0 300 0 299 0 301 0 300 0 301 0 302 0 302 0 301 0 303 0 302 0 303 0 304 0 304 0 303 0 305 0 304 0 305 0 306 0 306 0 305 0 307 0 306 0 307 0 272 0 272 0 307 0 308 0 272 0 308 0 273 0 309 0 310 0 311 0 311 0 310 0 312 0 311 0 312 0 313 0 313 0 312 0 314 0 313 0 314 0 315 0 315 0 314 0 316 0 315 0 316 0 317 0 317 0 316 0 318 0 317 0 318 0 319 0 319 0 318 0 320 0 319 0 320 0 321 0 321 0 320 0 322 0 321 0 322 0 298 0 298 0 322 0 323 0 298 0 323 0 299 0 269 0 324 0 270 0 270 0 324 0 325 0 270 0 325 0 326 0 326 0 325 0 327 0 326 0 327 0 328 0 328 0 327 0 329 0 328 0 329 0 330 0 330 0 329 0 331 0 330 0 331 0 332 0 332 0 331 0 333 0 332 0 333 0 309 0 309 0 333 0 334 0 309 0 334 0 310 0 158 0 307 0 258 0 258 0 307 0 305 0 158 0 157 0 307 0 307 0 157 0 159 0 307 0 159 0 308 0 159 0 161 0 308 0 308 0 161 0 162 0 308 0 162 0 273 0 166 0 275 0 165 0 165 0 275 0 273 0 165 0 273 0 163 0 163 0 273 0 162 0 166 0 168 0 275 0 275 0 168 0 169 0 275 0 169 0 277 0 169 0 170 0 277 0 277 0 170 0 3 0 277 0 3 0 279 0 279 0 3 0 5 0 279 0 5 0 262 0 262 0 173 0 279 0 279 0 173 0 172 0 279 0 172 0 281 0 175 0 283 0 176 0 176 0 283 0 281 0 176 0 281 0 177 0 177 0 281 0 172 0 175 0 174 0 283 0 283 0 174 0 178 0 283 0 178 0 285 0 181 0 286 0 180 0 180 0 286 0 285 0 180 0 285 0 179 0 179 0 285 0 178 0 184 0 288 0 183 0 183 0 288 0 286 0 183 0 286 0 182 0 182 0 286 0 181 0 188 0 290 0 187 0 187 0 290 0 288 0 187 0 288 0 186 0 186 0 288 0 184 0 192 0 292 0 190 0 190 0 292 0 290 0 190 0 290 0 189 0 189 0 290 0 188 0 192 0 193 0 292 0 292 0 193 0 194 0 292 0 194 0 294 0 198 0 296 0 197 0 197 0 296 0 294 0 197 0 294 0 196 0 196 0 294 0 194 0 198 0 0 0 296 0 296 0 0 0 2 0 296 0 2 0 297 0 2 0 264 0 297 0 297 0 264 0 203 0 297 0 203 0 269 0 203 0 202 0 269 0 269 0 202 0 201 0 269 0 201 0 335 0 335 0 201 0 200 0 335 0 200 0 325 0 267 0 327 0 204 0 204 0 327 0 325 0 204 0 325 0 199 0 199 0 325 0 200 0 267 0 209 0 327 0 327 0 209 0 208 0 327 0 208 0 329 0 215 0 331 0 216 0 216 0 331 0 329 0 216 0 329 0 206 0 206 0 329 0 208 0 215 0 213 0 331 0 331 0 213 0 211 0 331 0 211 0 333 0 333 0 211 0 210 0 333 0 210 0 334 0 334 0 210 0 220 0 334 0 220 0 218 0 228 0 310 0 223 0 223 0 310 0 334 0 223 0 334 0 217 0 217 0 334 0 218 0 224 0 312 0 225 0 225 0 312 0 310 0 225 0 310 0 227 0 227 0 310 0 228 0 224 0 229 0 312 0 312 0 229 0 230 0 312 0 230 0 314 0 230 0 233 0 314 0 314 0 233 0 232 0 314 0 232 0 316 0 234 0 318 0 240 0 240 0 318 0 316 0 240 0 316 0 231 0 231 0 316 0 232 0 234 0 236 0 318 0 318 0 236 0 237 0 318 0 237 0 320 0 320 0 237 0 238 0 320 0 238 0 241 0 241 0 242 0 320 0 320 0 242 0 243 0 320 0 243 0 322 0 243 0 245 0 322 0 322 0 245 0 246 0 322 0 246 0 323 0 253 0 299 0 249 0 249 0 299 0 323 0 249 0 323 0 247 0 247 0 323 0 246 0 253 0 252 0 299 0 299 0 252 0 251 0 299 0 251 0 301 0 257 0 303 0 256 0 256 0 303 0 301 0 256 0 301 0 255 0 255 0 301 0 251 0 257 0 261 0 303 0 303 0 261 0 260 0 303 0 260 0 305 0 305 0 260 0 336 0 305 0 336 0 258 0 337 0 304 0 338 0 338 0 304 0 306 0 338 0 306 0 339 0 339 0 306 0 272 0 339 0 272 0 340 0 340 0 272 0 274 0 340 0 274 0 341 0 341 0 274 0 276 0 341 0 276 0 342 0 342 0 276 0 278 0 342 0 278 0 343 0 343 0 278 0 280 0 343 0 280 0 344 0 344 0 280 0 282 0 344 0 282 0 345 0 345 0 282 0 284 0 345 0 284 0 346 0 346 0 284 0 287 0 346 0 287 0 347 0 347 0 287 0 289 0 347 0 289 0 348 0 348 0 289 0 291 0 348 0 291 0 349 0 349 0 291 0 293 0 349 0 293 0 350 0 350 0 293 0 295 0 350 0 295 0 351 0 351 0 295 0 271 0 351 0 271 0 352 0 352 0 271 0 353 0 352 0 353 0 354 0 354 0 353 0 326 0 354 0 326 0 355 0 355 0 326 0 328 0 355 0 328 0 356 0 356 0 328 0 330 0 356 0 330 0 357 0 357 0 330 0 332 0 357 0 332 0 358 0 358 0 332 0 309 0 358 0 309 0 359 0 359 0 309 0 311 0 359 0 311 0 360 0 360 0 311 0 313 0 360 0 313 0 361 0 361 0 313 0 315 0 361 0 315 0 362 0 362 0 315 0 317 0 362 0 317 0 363 0 363 0 317 0 319 0 363 0 319 0 364 0 364 0 319 0 321 0 364 0 321 0 365 0 365 0 321 0 298 0 365 0 298 0 366 0 366 0 298 0 300 0 366 0 300 0 367 0 367 0 300 0 302 0 367 0 302 0 337 0 337 0 302 0 304 0 355 0 340 0 354 0 354 0 340 0 341 0 354 0 341 0 342 0 355 0 356 0 340 0 340 0 356 0 357 0 340 0 357 0 358 0 358 0 359 0 340 0 340 0 359 0 360 0 340 0 360 0 361 0 342 0 343 0 354 0 354 0 343 0 344 0 354 0 344 0 345 0 361 0 362 0 340 0 340 0 362 0 363 0 340 0 363 0 364 0 364 0 365 0 340 0 340 0 365 0 366 0 340 0 366 0 367 0 367 0 337 0 340 0 340 0 337 0 338 0 340 0 338 0 339 0 354 0 348 0 349 0 349 0 350 0 354 0 354 0 350 0 351 0 354 0 351 0 352 0 345 0 346 0 354 0 354 0 346 0 347 0 354 0 347 0 348 0 153 0 74 0 155 0 155 0 74 0 156 0 153 0 152 0 74 0 74 0 152 0 9 0 74 0 9 0 75 0 123 0 74 0 121 0 121 0 74 0 120 0 145 0 143 0 74 0 74 0 143 0 263 0 74 0 263 0 151 0 63 0 61 0 9 0 123 0 125 0 74 0 74 0 125 0 126 0 74 0 126 0 128 0 140 0 138 0 74 0 74 0 138 0 146 0 74 0 146 0 145 0 151 0 150 0 74 0 74 0 150 0 148 0 74 0 148 0 156 0 114 0 74 0 115 0 115 0 74 0 111 0 114 0 116 0 74 0 74 0 116 0 118 0 74 0 118 0 120 0 368 0 221 0 9 0 9 0 221 0 65 0 9 0 65 0 63 0 32 0 34 0 221 0 221 0 34 0 268 0 221 0 268 0 57 0 57 0 268 0 58 0 77 0 76 0 84 0 100 0 99 0 74 0 74 0 99 0 98 0 74 0 98 0 101 0 101 0 103 0 74 0 74 0 103 0 105 0 74 0 105 0 106 0 106 0 108 0 74 0 74 0 108 0 112 0 74 0 112 0 111 0 7 0 6 0 74 0 74 0 6 0 141 0 74 0 141 0 140 0 22 0 20 0 221 0 221 0 20 0 19 0 221 0 19 0 265 0 265 0 25 0 221 0 221 0 25 0 24 0 221 0 24 0 27 0 27 0 29 0 221 0 221 0 29 0 31 0 221 0 31 0 32 0 39 0 37 0 59 0 49 0 50 0 52 0 61 0 60 0 9 0 9 0 60 0 69 0 9 0 69 0 67 0 67 0 66 0 9 0 9 0 66 0 266 0 9 0 266 0 75 0 74 0 84 0 369 0 369 0 87 0 74 0 74 0 87 0 86 0 74 0 86 0 90 0 128 0 130 0 74 0 74 0 130 0 133 0 74 0 133 0 132 0 132 0 136 0 74 0 74 0 136 0 135 0 74 0 135 0 7 0 368 0 15 0 221 0 221 0 15 0 14 0 221 0 14 0 18 0 94 0 92 0 74 0 74 0 92 0 91 0 74 0 91 0 100 0 18 0 17 0 221 0 221 0 17 0 23 0 221 0 23 0 22 0 58 0 268 0 59 0 59 0 268 0 40 0 59 0 40 0 39 0 37 0 36 0 59 0 59 0 36 0 43 0 59 0 43 0 44 0 44 0 45 0 47 0 90 0 89 0 74 0 74 0 89 0 95 0 74 0 95 0 94 0 55 0 59 0 53 0 53 0 59 0 44 0 53 0 44 0 52 0 52 0 44 0 47 0 52 0 47 0 49 0 74 0 72 0 84 0 84 0 72 0 80 0 84 0 80 0 77 0 77 0 80 0 79 0</p>
        </triangles>
      </mesh>
    </geometry>
  </library_geometries>
  <library_images />
  <library_visual_scenes>
    <visual_scene id="Scene">
      <node id="node_1" sid="node_1" type="NODE">
        <matrix>1 0 0 0 0 1 0 0 0 0 1 0 0 0 0 1</matrix>
        <instance_geometry url="#mesh_1" />
      </node>
    </visual_scene>
  </library_visual_scenes>
  <library_animations />
  <scene>
    <instance_visual_scene url="#Scene" />
  </scene>
</COLLADA>